<?xml version="1.0" standalone="no"?>
<!DOCTYPE svg PUBLIC "-//W3C//DTD SVG 20010904//EN"
 "http://www.w3.org/TR/2001/REC-SVG-20010904/DTD/svg10.dtd">
<svg version="1.0" xmlns="http://www.w3.org/2000/svg"
 width="247.000000pt" height="43.000000pt" viewBox="0 0 247.000000 43.000000"
 preserveAspectRatio="xMidYMid meet">

<g transform="translate(0.000000,43.000000) scale(0.100000,-0.100000)"
fill="#000000" stroke="none">
<path d="M530 224 l0 -106 71 4 c63 3 74 7 95 31 28 33 33 100 9 134 -18 26
-72 43 -132 43 l-43 0 0 -106z m130 46 c24 -24 26 -57 4 -88 -11 -16 -25 -22
-55 -22 l-39 0 0 65 0 65 35 0 c22 0 43 -8 55 -20z"/>
<path d="M760 225 l0 -105 80 0 c73 0 80 2 80 20 0 18 -7 20 -55 20 -48 0 -55
2 -55 20 0 17 7 20 45 20 38 0 45 3 45 20 0 17 -7 20 -45 20 -41 0 -45 2 -45
25 0 24 3 25 55 25 48 0 55 2 55 20 0 18 -7 20 -80 20 l-80 0 0 -105z"/>
<path d="M970 226 c0 -99 1 -106 20 -106 16 0 20 7 20 35 0 48 31 48 60 0 15
-24 29 -35 46 -35 29 0 30 4 3 41 -20 29 -20 31 -3 50 22 24 23 75 1 96 -11
11 -39 18 -82 21 l-65 4 0 -106z m115 34 c0 -22 -5 -25 -37 -28 -36 -3 -38 -2
-38 28 0 30 2 31 38 28 32 -3 37 -6 37 -28z"/>
<path d="M1187 323 c-4 -3 -7 -51 -7 -105 0 -97 0 -98 25 -98 22 0 24 4 27 58
l3 57 18 -32 c23 -43 51 -43 74 0 l18 32 3 -57 c3 -54 5 -58 28 -58 l25 0 -3
103 c-3 96 -4 102 -25 105 -16 2 -27 -8 -49 -47 -15 -28 -30 -51 -34 -51 -4 0
-19 23 -34 50 -25 46 -50 62 -69 43z"/>
<path d="M1471 238 c-19 -51 -36 -99 -38 -105 -3 -8 4 -13 20 -13 16 0 26 7
30 20 4 16 14 20 45 20 31 0 41 -4 45 -20 3 -12 14 -20 26 -20 26 0 26 2 1 70
-11 30 -28 74 -36 98 -12 32 -21 42 -38 42 -18 0 -27 -14 -55 -92z m74 -15 c5
-20 3 -23 -19 -23 -24 0 -24 2 -14 31 11 32 21 29 33 -8z"/>
<path d="M1620 310 c0 -16 7 -20 30 -20 l30 0 0 -85 c0 -84 0 -85 25 -85 25 0
25 1 25 85 l0 85 30 0 c23 0 30 4 30 20 0 18 -7 20 -85 20 -78 0 -85 -2 -85
-20z"/>
<path d="M1830 225 c0 -98 1 -105 20 -105 17 0 20 7 20 40 l0 40 50 0 50 0 0
-40 c0 -33 3 -40 20 -40 19 0 20 7 20 105 0 97 -1 105 -19 105 -16 0 -20 -8
-23 -42 l-3 -43 -45 0 -45 0 -3 43 c-3 34 -7 42 -23 42 -18 0 -19 -8 -19 -105z"/>
<path d="M2113 315 c-39 -17 -53 -42 -53 -95 0 -90 107 -135 178 -75 38 32 48
72 28 118 -24 59 -87 81 -153 52z m95 -45 c26 -24 28 -57 6 -88 -30 -43 -114
-15 -114 38 0 26 43 70 68 70 10 0 28 -9 40 -20z"/>
<path d="M2343 320 c-27 -11 -39 -50 -24 -78 6 -11 28 -26 48 -32 52 -17 62
-28 40 -45 -13 -9 -27 -11 -50 -4 -29 8 -46 0 -47 -22 0 -10 40 -19 81 -19 46
0 72 27 67 71 -3 30 -8 36 -48 50 -58 22 -60 45 -3 42 28 -1 43 3 47 13 10 27
-64 43 -111 24z"/>
</g>
</svg>
